<svg width="143" height="37" viewBox="0 0 143 37" fill="none" xmlns="http://www.w3.org/2000/svg">
<path d="M40.9877 8.98677C40.4994 9.23094 40.0399 9.5133 39.6081 9.82358C36.7335 11.9369 35.0221 15.0338 33.9986 18.2167C33.65 19.3197 33.398 20.4624 33.1898 21.6378C32.4075 26.1424 32.1223 31.5143 29.2287 35.6927C28.9169 36.1502 28.5837 36.5835 28.2253 37C28.4336 36.4918 28.6156 35.986 28.7781 35.4733C30.2714 30.8541 29.7366 26.1774 30.5907 21.1784C30.817 19.9011 31.1494 18.6132 31.6487 17.3705C33.0633 13.8261 35.81 10.6274 39.3792 9.37816C39.907 9.19628 40.447 9.06315 40.9877 8.98677Z" fill="#9F8D8D"/>
<path d="M11.1463 8.98677C11.6871 9.06315 12.227 9.19627 12.7549 9.37816C16.3241 10.6274 19.0708 13.8261 20.4854 17.3705C20.9847 18.6132 21.3169 19.9011 21.5431 21.1784C22.3973 26.1775 21.8627 30.8541 23.356 35.4733C23.5185 35.9859 23.7004 36.4918 23.9087 37C23.5503 36.5835 23.2171 36.1502 22.9054 35.6927C20.0117 31.5143 19.7266 26.1425 18.9443 21.6378C18.736 20.4624 18.484 19.3197 18.1355 18.2167C17.1119 15.0338 15.4004 11.9369 12.5257 9.82358C12.0939 9.51331 11.6347 9.23093 11.1463 8.98677Z" fill="#9F8D8D"/>
<path d="M42.4628 0.703085C44.6039 0.0155137 47.0123 -0.351849 49.2964 0.475227C51.6233 1.1423 53.2385 4.19886 51.9214 6.30129C51.594 6.925 51.0181 7.34773 50.4068 7.55334C49.1485 8.02838 47.5882 7.36792 47.241 6.14993C47.7832 7.30344 49.2335 7.61299 50.2184 7.08943C50.7022 6.85392 51.0937 6.45674 51.262 5.9988C52.0557 4.11036 50.679 2.22692 48.8505 1.83255C47.0197 1.35898 44.9902 1.80286 43.1398 2.55473C37.1053 4.78008 33.1006 10.2783 26.1374 10.2783C19.0643 10.2783 14.5447 4.50565 9.25461 2.55473C7.40414 1.80285 5.3744 1.35897 3.54366 1.83255C1.7152 2.22695 0.338675 4.11039 1.13233 5.9988C1.30063 6.45672 1.69217 6.85392 2.17596 7.08943C3.16085 7.61291 4.6112 7.30339 5.1534 6.14993C4.80613 7.3679 3.24584 8.02833 1.98758 7.55334C1.37626 7.34773 0.800168 6.92504 0.472733 6.30129C-0.844404 4.19883 0.771033 1.14225 3.09799 0.475227C5.38204 -0.351812 7.79023 0.0155377 9.93131 0.703085C16.2149 2.70922 20.253 7.64738 26.1969 7.64738C32.1409 7.64738 36.1791 2.70926 42.4628 0.703085Z" fill="#9F8D8D"/>
<path d="M65.5209 10.5674C65.2098 10.5674 64.8403 10.5528 64.4125 10.5237C64.2569 10.5139 64.0625 10.5042 63.8291 10.4945C63.6055 10.4848 63.3527 10.4799 63.0708 10.4799L61.9916 10.4945C61.7971 10.5042 61.5346 10.5091 61.204 10.5091C61.1846 10.5091 61.1749 10.4799 61.1749 10.4216C61.1749 10.3632 61.1846 10.3341 61.204 10.3341C61.5152 10.3341 61.7436 10.3098 61.8895 10.2612C62.0353 10.2125 62.1325 10.1202 62.1812 9.98406C62.2395 9.83822 62.2687 9.61946 62.2687 9.32778V2.57542C62.2687 2.28374 62.2395 2.06984 62.1812 1.93372C62.1325 1.79761 62.0353 1.70524 61.8895 1.65663C61.7534 1.59829 61.5346 1.56912 61.2332 1.56912C61.204 1.56912 61.1894 1.53996 61.1894 1.48162C61.1894 1.42328 61.204 1.39412 61.2332 1.39412L62.0061 1.4087C62.4534 1.42815 62.8083 1.43787 63.0708 1.43787C63.4694 1.43787 63.8778 1.42328 64.2958 1.39412C64.8014 1.37467 65.1417 1.36495 65.3167 1.36495C66.2987 1.36495 67.1689 1.5594 67.9272 1.94831C68.6953 2.33721 69.2884 2.86709 69.7065 3.53796C70.1245 4.20882 70.3336 4.96232 70.3336 5.79847C70.3336 6.74156 70.1148 7.57771 69.6773 8.30691C69.2495 9.02638 68.6661 9.58543 67.9272 9.98406C67.198 10.373 66.3959 10.5674 65.5209 10.5674ZM65.375 10.232C65.9973 10.232 66.5466 10.0764 67.023 9.7653C67.4994 9.44445 67.8689 8.97291 68.1314 8.35066C68.4036 7.72841 68.5398 6.98463 68.5398 6.11931C68.5398 5.29289 68.4134 4.54425 68.1606 3.87339C67.9078 3.1928 67.548 2.65806 67.0814 2.26915C66.6147 1.88025 66.0751 1.6858 65.4625 1.6858C64.8597 1.6858 64.4465 1.74413 64.2229 1.8608C63.9993 1.97747 63.8875 2.2254 63.8875 2.60458V9.16736C63.8875 9.55626 63.9896 9.83336 64.1937 9.99864C64.3979 10.1542 64.7917 10.232 65.375 10.232Z" fill="#222222"/>
<path d="M81.3748 10.3341C81.3942 10.3341 81.4039 10.3632 81.4039 10.4216C81.4039 10.4799 81.3942 10.5091 81.3748 10.5091H78.7788C78.5649 10.5091 78.1663 10.125 77.5829 9.35695C76.9996 8.57914 76.2947 7.49507 75.4683 6.10473C75.3905 6.11445 75.2787 6.11931 75.1328 6.11931C74.7537 6.11931 74.4863 6.11445 74.3307 6.10473V9.32778C74.3307 9.62918 74.355 9.84794 74.4036 9.98406C74.4523 10.1202 74.5446 10.2125 74.6807 10.2612C74.8266 10.3098 75.0551 10.3341 75.3662 10.3341C75.3856 10.3341 75.3953 10.3632 75.3953 10.4216C75.3953 10.4799 75.3856 10.5091 75.3662 10.5091C75.0453 10.5091 74.7925 10.5042 74.6078 10.4945L73.4994 10.4799L72.4348 10.4945C72.2404 10.5042 71.9778 10.5091 71.6473 10.5091C71.6181 10.5091 71.6035 10.4799 71.6035 10.4216C71.6035 10.3632 71.6181 10.3341 71.6473 10.3341C71.9584 10.3341 72.182 10.3098 72.3181 10.2612C72.464 10.2125 72.5612 10.1202 72.6098 9.98406C72.6681 9.83822 72.6973 9.61946 72.6973 9.32778V2.57542C72.6973 2.28374 72.673 2.06984 72.6244 1.93372C72.5758 1.79761 72.4786 1.70524 72.3327 1.65663C72.1869 1.59829 71.9633 1.56912 71.6619 1.56912C71.6424 1.56912 71.6327 1.53996 71.6327 1.48162C71.6327 1.42328 71.6424 1.39412 71.6619 1.39412L72.4348 1.4087C72.882 1.42815 73.2369 1.43787 73.4994 1.43787C73.83 1.43787 74.1752 1.42328 74.5349 1.39412C74.6613 1.38439 74.8168 1.37467 75.0016 1.36495C75.196 1.35523 75.4099 1.35036 75.6433 1.35036C76.528 1.35036 77.2135 1.51565 77.6996 1.84622C78.1857 2.16707 78.4288 2.61917 78.4288 3.20253C78.4288 3.73727 78.283 4.2234 77.9913 4.66092C77.6996 5.08871 77.3107 5.43387 76.8246 5.69638C77.6024 6.86309 78.2538 7.77702 78.7788 8.43816C79.3038 9.0993 79.7705 9.58057 80.1789 9.88197C80.5872 10.1834 80.9859 10.3341 81.3748 10.3341ZM74.3307 5.69638C74.5641 5.73527 74.846 5.75472 75.1766 5.75472C75.7405 5.75472 76.144 5.59915 76.3871 5.28803C76.6398 4.96718 76.7662 4.45674 76.7662 3.75672C76.7662 2.95946 76.6496 2.41013 76.4162 2.10873C76.1829 1.80733 75.8474 1.65663 75.4099 1.65663C75.021 1.65663 74.7439 1.72955 74.5786 1.87539C74.4134 2.02123 74.3307 2.26429 74.3307 2.60458V5.69638Z" fill="#222222"/>
<path d="M82.7638 10.6695C82.4915 10.6695 82.2728 10.5917 82.1075 10.4362C81.9519 10.2709 81.8741 10.0521 81.8741 9.77988C81.8741 9.52709 81.9519 9.32292 82.1075 9.16736C82.2728 9.0118 82.4915 8.93401 82.7638 8.93401C83.036 8.93401 83.245 9.0118 83.3909 9.16736C83.5464 9.3132 83.6242 9.51737 83.6242 9.77988C83.6242 10.0618 83.5464 10.2806 83.3909 10.4362C83.245 10.5917 83.036 10.6695 82.7638 10.6695Z" fill="#222222"/>
<path d="M71.2232 22.7574C71.2718 22.7574 71.2961 22.7866 71.2961 22.8449C71.2961 22.9033 71.2718 22.9324 71.2232 22.9324C71.0287 22.9324 70.7273 22.9227 70.319 22.9033C69.8912 22.8838 69.5849 22.8741 69.4002 22.8741C69.1571 22.8741 68.8606 22.8838 68.5106 22.9033C68.18 22.9227 67.9175 22.9324 67.7231 22.9324C67.6842 22.9324 67.6647 22.9033 67.6647 22.8449C67.6647 22.7866 67.6842 22.7574 67.7231 22.7574C67.9758 22.7574 68.1557 22.7331 68.2627 22.6845C68.3793 22.6262 68.4377 22.5289 68.4377 22.3928C68.4377 22.2275 68.3404 21.9505 68.146 21.5615L67.1543 19.5927H63.5666L62.9979 20.8615C62.8715 21.1435 62.8083 21.406 62.8083 21.6491C62.8083 21.9991 62.9298 22.2713 63.1729 22.4658C63.4257 22.6602 63.7611 22.7574 64.1792 22.7574C64.2278 22.7574 64.2521 22.7866 64.2521 22.8449C64.2521 22.9033 64.2278 22.9324 64.1792 22.9324C64.0041 22.9324 63.7514 22.9227 63.4208 22.9033C63.0513 22.8838 62.7305 22.8741 62.4583 22.8741C62.1957 22.8741 61.8798 22.8838 61.5103 22.9033C61.1797 22.9227 60.9124 22.9324 60.7082 22.9324C60.6693 22.9324 60.6498 22.9033 60.6498 22.8449C60.6498 22.7866 60.6693 22.7574 60.7082 22.7574C60.9804 22.7574 61.2089 22.704 61.3936 22.597C61.5784 22.4803 61.7631 22.281 61.9478 21.9991C62.1325 21.7074 62.3513 21.2796 62.6041 20.7157L65.7688 13.7591C65.7883 13.73 65.832 13.7154 65.9001 13.7154C65.9778 13.7154 66.0216 13.73 66.0313 13.7591L69.6773 20.9344C70.0176 21.6247 70.2996 22.1012 70.5232 22.3637C70.7468 22.6262 70.9801 22.7574 71.2232 22.7574ZM63.7562 19.1844H66.9355L65.2584 15.8592L63.7562 19.1844Z" fill="#222222"/>
<path d="M81.8814 22.7574C81.9106 22.7574 81.9252 22.7866 81.9252 22.8449C81.9252 22.9033 81.9106 22.9324 81.8814 22.9324C81.5411 22.9324 81.2689 22.9276 81.0647 22.9179L79.9418 22.9033L78.6292 22.9179C78.4542 22.9276 78.216 22.9324 77.9146 22.9324C77.8854 22.9324 77.8709 22.9033 77.8709 22.8449C77.8709 22.7866 77.8854 22.7574 77.9146 22.7574C78.2743 22.7574 78.5369 22.7331 78.7021 22.6845C78.8674 22.6359 78.9792 22.5435 79.0376 22.4074C79.0959 22.2713 79.1251 22.0525 79.1251 21.7511V18.3968H74.4145V21.7511C74.4145 22.0428 74.4436 22.2616 74.502 22.4074C74.5603 22.5435 74.6721 22.6359 74.8374 22.6845C75.0027 22.7331 75.2652 22.7574 75.6249 22.7574C75.6444 22.7574 75.6541 22.7866 75.6541 22.8449C75.6541 22.9033 75.6444 22.9324 75.6249 22.9324C75.2846 22.9324 75.0124 22.9276 74.8082 22.9179L73.5394 22.9033L72.4456 22.9179C72.2512 22.9276 71.9838 22.9324 71.6435 22.9324C71.6241 22.9324 71.6143 22.9033 71.6143 22.8449C71.6143 22.7866 71.6241 22.7574 71.6435 22.7574C71.9838 22.7574 72.2317 22.7331 72.3873 22.6845C72.5429 22.6359 72.6498 22.5435 72.7081 22.4074C72.7665 22.2616 72.7956 22.0428 72.7956 21.7511V14.9988C72.7956 14.7071 72.7665 14.4932 72.7081 14.3571C72.6498 14.221 72.5429 14.1286 72.3873 14.08C72.2415 14.0216 72.0033 13.9925 71.6727 13.9925C71.6435 13.9925 71.6289 13.9633 71.6289 13.905C71.6289 13.8466 71.6435 13.8175 71.6727 13.8175L72.4602 13.8321C72.9075 13.8515 73.2672 13.8612 73.5394 13.8612C73.9089 13.8612 74.3367 13.8515 74.8228 13.8321L75.6249 13.8175C75.6444 13.8175 75.6541 13.8466 75.6541 13.905C75.6541 13.9633 75.6444 13.9925 75.6249 13.9925C75.2749 13.9925 75.0173 14.0216 74.852 14.08C74.6867 14.1383 74.57 14.2404 74.502 14.3862C74.4436 14.5224 74.4145 14.7363 74.4145 15.0279V17.9885H79.1251V15.0279C79.1251 14.7363 79.0959 14.5224 79.0376 14.3862C78.9792 14.2404 78.8674 14.1383 78.7021 14.08C78.5369 14.0216 78.2743 13.9925 77.9146 13.9925C77.8854 13.9925 77.8709 13.9633 77.8709 13.905C77.8709 13.8466 77.8854 13.8175 77.9146 13.8175L78.6292 13.8321C79.1154 13.8515 79.5529 13.8612 79.9418 13.8612C80.2043 13.8612 80.5786 13.8515 81.0647 13.8321L81.8814 13.8175C81.9106 13.8175 81.9252 13.8466 81.9252 13.905C81.9252 13.9633 81.9106 13.9925 81.8814 13.9925C81.5509 13.9925 81.3029 14.0216 81.1377 14.08C80.9821 14.1286 80.8751 14.221 80.8168 14.3571C80.7682 14.4932 80.7439 14.7071 80.7439 14.9988V21.7511C80.7439 22.0428 80.7682 22.2616 80.8168 22.4074C80.8751 22.5435 80.9821 22.6359 81.1377 22.6845C81.2932 22.7331 81.5411 22.7574 81.8814 22.7574Z" fill="#222222"/>
<path d="M94.4918 22.7574C94.5112 22.7574 94.5209 22.7866 94.5209 22.8449C94.5209 22.9033 94.5112 22.9324 94.4918 22.9324C94.1612 22.9324 93.8987 22.9276 93.7042 22.9179L92.625 22.9033L91.5312 22.9179C91.3465 22.9276 91.0937 22.9324 90.7729 22.9324C90.7437 22.9324 90.7291 22.9033 90.7291 22.8449C90.7291 22.7866 90.7437 22.7574 90.7729 22.7574C91.1812 22.7574 91.4583 22.7088 91.6041 22.6116C91.75 22.5144 91.8229 22.3102 91.8229 21.9991L91.8083 21.7511L91.5021 15.7863L88.4978 22.8304C88.4783 22.8692 88.4394 22.8887 88.3811 22.8887C88.3228 22.8887 88.2839 22.8692 88.2644 22.8304L84.5747 15.8155L84.458 21.0803C84.4483 21.6053 84.5504 22.0185 84.7643 22.3199C84.9879 22.6116 85.299 22.7574 85.6976 22.7574C85.7268 22.7574 85.7414 22.7866 85.7414 22.8449C85.7414 22.9033 85.7268 22.9324 85.6976 22.9324C85.4351 22.9324 85.231 22.9276 85.0851 22.9179L84.283 22.9033L83.3642 22.9179C83.2087 22.9276 82.9996 22.9324 82.7371 22.9324C82.7079 22.9324 82.6934 22.9033 82.6934 22.8449C82.6934 22.7866 82.7079 22.7574 82.7371 22.7574C83.1357 22.7574 83.4517 22.6067 83.6851 22.3053C83.9184 22.0039 84.0399 21.5956 84.0497 21.0803L84.1809 15.0425L84.1663 15.0279C83.9719 14.6682 83.7677 14.4057 83.5538 14.2404C83.3496 14.0751 83.1114 13.9925 82.8392 13.9925C82.81 13.9925 82.7954 13.9633 82.7954 13.905C82.7954 13.8466 82.81 13.8175 82.8392 13.8175L83.5246 13.8321C83.6608 13.8418 83.8358 13.8466 84.0497 13.8466L84.8226 13.8321C84.9101 13.8223 85.0219 13.8175 85.158 13.8175C85.2844 13.8175 85.3817 13.8612 85.4497 13.9487C85.5178 14.0362 85.6442 14.2453 85.8289 14.5758L89.0082 20.5407L91.7792 14.1821C91.8375 14.046 91.8958 13.9536 91.9542 13.905C92.0222 13.8466 92.1097 13.8175 92.2167 13.8175C92.3042 13.8175 92.4014 13.8223 92.5083 13.8321C92.625 13.8418 92.7563 13.8466 92.9021 13.8466L93.7626 13.8321C93.8987 13.8223 94.0931 13.8175 94.3459 13.8175C94.3751 13.8175 94.3897 13.8466 94.3897 13.905C94.3897 13.9633 94.3751 13.9925 94.3459 13.9925C93.889 13.9925 93.5584 14.0848 93.3542 14.2696C93.15 14.4543 93.0577 14.7411 93.0771 15.13L93.4271 21.7511C93.4466 22.0525 93.4806 22.2713 93.5292 22.4074C93.5876 22.5435 93.6848 22.6359 93.8209 22.6845C93.9667 22.7331 94.1904 22.7574 94.4918 22.7574Z" fill="#222222"/>
<path d="M102.082 20.6136C102.082 20.5941 102.101 20.5844 102.14 20.5844C102.169 20.5844 102.193 20.5941 102.213 20.6136C102.242 20.6233 102.257 20.633 102.257 20.6428C102.159 21.4011 102.111 22.0914 102.111 22.7137C102.111 22.7915 102.096 22.8498 102.067 22.8887C102.038 22.9179 101.979 22.9324 101.892 22.9324H95.4459C95.4167 22.9324 95.4021 22.9033 95.4021 22.8449C95.4021 22.7866 95.4167 22.7574 95.4459 22.7574C95.757 22.7574 95.9806 22.7331 96.1167 22.6845C96.2626 22.6359 96.3598 22.5435 96.4084 22.4074C96.457 22.2616 96.4813 22.0428 96.4813 21.7511V14.9988C96.4813 14.7071 96.457 14.4932 96.4084 14.3571C96.3598 14.221 96.2626 14.1286 96.1167 14.08C95.9709 14.0216 95.7473 13.9925 95.4459 13.9925C95.4167 13.9925 95.4021 13.9633 95.4021 13.905C95.4021 13.8466 95.4167 13.8175 95.4459 13.8175H101.629C101.727 13.8175 101.775 13.8612 101.775 13.9487L101.804 15.8884C101.804 15.9078 101.775 15.9224 101.717 15.9321C101.668 15.9419 101.639 15.9321 101.629 15.903C101.474 15.3391 101.211 14.921 100.842 14.6488C100.472 14.3765 99.9863 14.2404 99.3835 14.2404H98.946C98.6543 14.2404 98.4404 14.3036 98.3043 14.43C98.1682 14.5564 98.1002 14.7508 98.1002 15.0134V17.9885H99.3106C99.8745 17.9885 100.307 17.8913 100.609 17.6968C100.91 17.5023 101.061 17.2301 101.061 16.8801C101.061 16.8509 101.085 16.8364 101.134 16.8364C101.192 16.8364 101.221 16.8509 101.221 16.8801L101.207 18.1927L101.221 18.8927C101.241 19.2233 101.25 19.4858 101.25 19.6802C101.25 19.6997 101.221 19.7094 101.163 19.7094C101.104 19.7094 101.075 19.6997 101.075 19.6802C101.075 19.2816 100.92 18.9705 100.609 18.7468C100.307 18.5135 99.8697 18.3968 99.296 18.3968H98.1002V21.6928C98.1002 21.9748 98.1536 22.1838 98.2606 22.3199C98.3675 22.456 98.5377 22.5241 98.771 22.5241H99.2523C100.011 22.5241 100.618 22.3685 101.075 22.0574C101.532 21.7463 101.868 21.265 102.082 20.6136Z" fill="#222222"/>
<path d="M107.649 22.9908C107.338 22.9908 106.969 22.9762 106.541 22.947C106.385 22.9373 106.191 22.9276 105.957 22.9179C105.734 22.9081 105.481 22.9033 105.199 22.9033L104.12 22.9179C103.925 22.9276 103.663 22.9324 103.332 22.9324C103.313 22.9324 103.303 22.9033 103.303 22.8449C103.303 22.7866 103.313 22.7574 103.332 22.7574C103.643 22.7574 103.872 22.7331 104.018 22.6845C104.164 22.6359 104.261 22.5435 104.309 22.4074C104.368 22.2616 104.397 22.0428 104.397 21.7511V14.9988C104.397 14.7071 104.368 14.4932 104.309 14.3571C104.261 14.221 104.164 14.1286 104.018 14.08C103.882 14.0216 103.663 13.9925 103.361 13.9925C103.332 13.9925 103.318 13.9633 103.318 13.905C103.318 13.8466 103.332 13.8175 103.361 13.8175L104.134 13.8321C104.582 13.8515 104.936 13.8612 105.199 13.8612C105.598 13.8612 106.006 13.8466 106.424 13.8175C106.93 13.798 107.27 13.7883 107.445 13.7883C108.427 13.7883 109.297 13.9828 110.055 14.3717C110.824 14.7606 111.417 15.2905 111.835 15.9613C112.253 16.6322 112.462 17.3857 112.462 18.2218C112.462 19.1649 112.243 20.0011 111.806 20.7303C111.378 21.4497 110.794 22.0088 110.055 22.4074C109.326 22.7963 108.524 22.9908 107.649 22.9908ZM107.503 22.6553C108.126 22.6553 108.675 22.4998 109.151 22.1887C109.628 21.8678 109.997 21.3963 110.26 20.774C110.532 20.1518 110.668 19.408 110.668 18.5427C110.668 17.7162 110.542 16.9676 110.289 16.2967C110.036 15.6162 109.676 15.0814 109.21 14.6925C108.743 14.3036 108.203 14.1092 107.591 14.1092C106.988 14.1092 106.575 14.1675 106.351 14.2842C106.128 14.4008 106.016 14.6488 106.016 15.0279V21.5907C106.016 21.9796 106.118 22.2567 106.322 22.422C106.526 22.5776 106.92 22.6553 107.503 22.6553Z" fill="#222222"/>
<path d="M118.515 23.1074C117.611 23.1074 116.804 22.8984 116.094 22.4803C115.394 22.0525 114.85 21.4789 114.461 20.7594C114.082 20.0302 113.892 19.2378 113.892 18.3822C113.892 17.3808 114.145 16.5252 114.651 15.8155C115.156 15.096 115.803 14.5564 116.59 14.1967C117.387 13.8369 118.199 13.6571 119.026 13.6571C119.949 13.6571 120.761 13.8758 121.461 14.3133C122.161 14.7411 122.696 15.3099 123.065 16.0196C123.445 16.7294 123.634 17.4829 123.634 18.2802C123.634 19.1649 123.401 19.9768 122.934 20.7157C122.468 21.4546 121.84 22.038 121.053 22.4658C120.275 22.8935 119.429 23.1074 118.515 23.1074ZM118.997 22.7428C119.541 22.7428 120.027 22.5873 120.455 22.2762C120.892 21.9553 121.233 21.4935 121.476 20.8907C121.719 20.2782 121.84 19.549 121.84 18.7031C121.84 17.8086 121.704 17.0114 121.432 16.3113C121.16 15.6016 120.766 15.0474 120.251 14.6488C119.735 14.2501 119.133 14.0508 118.442 14.0508C117.558 14.0508 116.877 14.3862 116.401 15.0571C115.924 15.7182 115.686 16.6468 115.686 17.8426C115.686 18.7857 115.827 19.6316 116.109 20.3802C116.401 21.1192 116.794 21.6977 117.29 22.1157C117.796 22.5338 118.365 22.7428 118.997 22.7428Z" fill="#222222"/>
<path d="M133.7 13.8175C133.729 13.8175 133.744 13.8466 133.744 13.905C133.744 13.9633 133.729 13.9925 133.7 13.9925C133.35 13.9925 133.014 14.148 132.694 14.4592C132.373 14.7703 132.115 15.1884 131.921 15.7134L129.223 22.9179C129.213 22.9567 129.159 22.9762 129.062 22.9762C128.965 22.9762 128.911 22.9567 128.902 22.9179L125.183 15.0279C125.008 14.6779 124.833 14.4203 124.658 14.255C124.483 14.08 124.288 13.9925 124.074 13.9925C124.045 13.9925 124.031 13.9633 124.031 13.905C124.031 13.8466 124.045 13.8175 124.074 13.8175C124.22 13.8175 124.322 13.8223 124.381 13.8321C124.575 13.8515 124.828 13.8612 125.139 13.8612C125.975 13.8612 126.685 13.8515 127.268 13.8321C127.424 13.8223 127.618 13.8175 127.852 13.8175C127.881 13.8175 127.895 13.8466 127.895 13.905C127.895 13.9633 127.881 13.9925 127.852 13.9925C127.56 13.9925 127.332 14.0557 127.166 14.1821C127.011 14.2987 126.933 14.4689 126.933 14.6925C126.933 14.8578 126.986 15.0571 127.093 15.2905L129.616 20.6719L131.512 15.6696C131.61 15.3974 131.658 15.1641 131.658 14.9696C131.658 14.6682 131.566 14.43 131.381 14.255C131.206 14.08 130.948 13.9925 130.608 13.9925C130.579 13.9925 130.564 13.9633 130.564 13.905C130.564 13.8466 130.579 13.8175 130.608 13.8175L131.323 13.8321C131.731 13.8515 132.096 13.8612 132.417 13.8612C132.601 13.8612 132.83 13.8515 133.102 13.8321L133.7 13.8175Z" fill="#222222"/>
<path d="M142.647 22.7574C142.696 22.7574 142.72 22.7866 142.72 22.8449C142.72 22.9033 142.696 22.9324 142.647 22.9324C142.453 22.9324 142.152 22.9227 141.743 22.9033C141.315 22.8838 141.009 22.8741 140.824 22.8741C140.581 22.8741 140.285 22.8838 139.935 22.9033C139.604 22.9227 139.342 22.9324 139.147 22.9324C139.108 22.9324 139.089 22.9033 139.089 22.8449C139.089 22.7866 139.108 22.7574 139.147 22.7574C139.4 22.7574 139.58 22.7331 139.687 22.6845C139.804 22.6262 139.862 22.5289 139.862 22.3928C139.862 22.2275 139.765 21.9505 139.57 21.5615L138.579 19.5927H134.991L134.422 20.8615C134.296 21.1435 134.233 21.406 134.233 21.6491C134.233 21.9991 134.354 22.2713 134.597 22.4658C134.85 22.6602 135.185 22.7574 135.603 22.7574C135.652 22.7574 135.676 22.7866 135.676 22.8449C135.676 22.9033 135.652 22.9324 135.603 22.9324C135.428 22.9324 135.176 22.9227 134.845 22.9033C134.476 22.8838 134.155 22.8741 133.883 22.8741C133.62 22.8741 133.304 22.8838 132.935 22.9033C132.604 22.9227 132.337 22.9324 132.132 22.9324C132.094 22.9324 132.074 22.9033 132.074 22.8449C132.074 22.7866 132.094 22.7574 132.132 22.7574C132.405 22.7574 132.633 22.704 132.818 22.597C133.003 22.4803 133.187 22.281 133.372 21.9991C133.557 21.7074 133.776 21.2796 134.028 20.7157L137.193 13.7591C137.213 13.73 137.256 13.7154 137.324 13.7154C137.402 13.7154 137.446 13.73 137.456 13.7591L141.102 20.9344C141.442 21.6247 141.724 22.1012 141.947 22.3637C142.171 22.6262 142.404 22.7574 142.647 22.7574ZM135.181 19.1844H138.36L136.683 15.8592L135.181 19.1844Z" fill="#222222"/>
<path d="M72.9149 35.1808C72.9344 35.1808 72.9441 35.21 72.9441 35.2683C72.9441 35.3266 72.9344 35.3558 72.9149 35.3558C72.5844 35.3558 72.3219 35.3509 72.1274 35.3412L71.0482 35.3266L69.9544 35.3412C69.7697 35.3509 69.5169 35.3558 69.196 35.3558C69.1669 35.3558 69.1523 35.3266 69.1523 35.2683C69.1523 35.21 69.1669 35.1808 69.196 35.1808C69.6044 35.1808 69.8815 35.1322 70.0273 35.035C70.1732 34.9377 70.2461 34.7335 70.2461 34.4224L70.2315 34.1745L69.9252 28.2097L66.9209 35.2537C66.9015 35.2926 66.8626 35.312 66.8043 35.312C66.7459 35.312 66.707 35.2926 66.6876 35.2537L62.9979 28.2388L62.8812 33.5036C62.8715 34.0287 62.9735 34.4419 63.1874 34.7433C63.4111 35.035 63.7222 35.1808 64.1208 35.1808C64.15 35.1808 64.1646 35.21 64.1646 35.2683C64.1646 35.3266 64.15 35.3558 64.1208 35.3558C63.8583 35.3558 63.6541 35.3509 63.5083 35.3412L62.7062 35.3266L61.7874 35.3412C61.6318 35.3509 61.4228 35.3558 61.1603 35.3558C61.1311 35.3558 61.1165 35.3266 61.1165 35.2683C61.1165 35.21 61.1311 35.1808 61.1603 35.1808C61.5589 35.1808 61.8749 35.0301 62.1082 34.7287C62.3416 34.4273 62.4631 34.0189 62.4728 33.5036L62.6041 27.4659L62.5895 27.4513C62.3951 27.0916 62.1909 26.8291 61.977 26.6638C61.7728 26.4985 61.5346 26.4158 61.2624 26.4158C61.2332 26.4158 61.2186 26.3867 61.2186 26.3283C61.2186 26.27 61.2332 26.2408 61.2624 26.2408L61.9478 26.2554C62.0839 26.2651 62.2589 26.27 62.4728 26.27L63.2458 26.2554C63.3333 26.2457 63.4451 26.2408 63.5812 26.2408C63.7076 26.2408 63.8048 26.2846 63.8729 26.3721C63.941 26.4596 64.0673 26.6686 64.2521 26.9992L67.4314 32.964L70.2023 26.6054C70.2607 26.4693 70.319 26.3769 70.3773 26.3283C70.4454 26.27 70.5329 26.2408 70.6398 26.2408C70.7273 26.2408 70.8246 26.2457 70.9315 26.2554C71.0482 26.2651 71.1794 26.27 71.3253 26.27L72.1857 26.2554C72.3219 26.2457 72.5163 26.2408 72.7691 26.2408C72.7983 26.2408 72.8128 26.27 72.8128 26.3283C72.8128 26.3867 72.7983 26.4158 72.7691 26.4158C72.3121 26.4158 71.9816 26.5082 71.7774 26.6929C71.5732 26.8777 71.4808 27.1645 71.5003 27.5534L71.8503 34.1745C71.8698 34.4759 71.9038 34.6947 71.9524 34.8308C72.0107 34.9669 72.108 35.0593 72.2441 35.1079C72.3899 35.1565 72.6135 35.1808 72.9149 35.1808Z" fill="#222222"/>
<path d="M76.5817 34.1745C76.5817 34.4759 76.606 34.6947 76.6546 34.8308C76.7032 34.9669 76.7956 35.0593 76.9317 35.1079C77.0775 35.1565 77.306 35.1808 77.6171 35.1808C77.6463 35.1808 77.6609 35.21 77.6609 35.2683C77.6609 35.3266 77.6463 35.3558 77.6171 35.3558C77.2963 35.3558 77.0435 35.3509 76.8588 35.3412L75.7504 35.3266L74.6712 35.3412C74.4767 35.3509 74.2142 35.3558 73.8836 35.3558C73.8642 35.3558 73.8545 35.3266 73.8545 35.2683C73.8545 35.21 73.8642 35.1808 73.8836 35.1808C74.1948 35.1808 74.4232 35.1565 74.5691 35.1079C74.7149 35.0593 74.8121 34.9669 74.8608 34.8308C74.9191 34.6849 74.9483 34.4662 74.9483 34.1745V27.4221C74.9483 27.1305 74.9191 26.9166 74.8608 26.7804C74.8121 26.6443 74.7149 26.552 74.5691 26.5033C74.4232 26.445 74.1948 26.4158 73.8836 26.4158C73.8642 26.4158 73.8545 26.3867 73.8545 26.3283C73.8545 26.27 73.8642 26.2408 73.8836 26.2408L74.6712 26.2554C75.1184 26.2749 75.4781 26.2846 75.7504 26.2846C76.0518 26.2846 76.4261 26.2749 76.8733 26.2554L77.6171 26.2408C77.6463 26.2408 77.6609 26.27 77.6609 26.3283C77.6609 26.3867 77.6463 26.4158 77.6171 26.4158C77.3157 26.4158 77.0921 26.445 76.9463 26.5033C76.8004 26.5617 76.7032 26.6638 76.6546 26.8096C76.606 26.9457 76.5817 27.1596 76.5817 27.4513V34.1745Z" fill="#222222"/>
<path d="M81.3622 34.1162C81.3622 34.3689 81.3817 34.5537 81.4206 34.6703C81.4595 34.7773 81.5324 34.8502 81.6393 34.8891C81.756 34.928 81.9407 34.9474 82.1935 34.9474H82.6894C83.4477 34.9474 84.104 34.7481 84.6582 34.3495C85.2124 33.9412 85.5819 33.3918 85.7666 32.7015C85.7666 32.6821 85.786 32.6723 85.8249 32.6723C85.8444 32.6723 85.8638 32.6821 85.8833 32.7015C85.9124 32.7112 85.927 32.721 85.927 32.7307C85.8395 33.6932 85.7957 34.4953 85.7957 35.137C85.7957 35.2148 85.7763 35.2732 85.7374 35.312C85.7082 35.3412 85.6548 35.3558 85.577 35.3558H78.6934C78.6739 35.3558 78.6642 35.3266 78.6642 35.2683C78.6642 35.21 78.6739 35.1808 78.6934 35.1808C79.0045 35.1808 79.2281 35.1565 79.3642 35.1079C79.5101 35.0593 79.6073 34.9669 79.6559 34.8308C79.7142 34.6849 79.7434 34.4662 79.7434 34.1745V27.4221C79.7434 27.1305 79.7142 26.9166 79.6559 26.7804C79.6073 26.6443 79.5101 26.552 79.3642 26.5033C79.2184 26.445 78.9948 26.4158 78.6934 26.4158C78.6739 26.4158 78.6642 26.3867 78.6642 26.3283C78.6642 26.27 78.6739 26.2408 78.6934 26.2408L79.4371 26.2554C79.8844 26.2749 80.2539 26.2846 80.5455 26.2846C80.8372 26.2846 81.2067 26.2749 81.6539 26.2554L82.3977 26.2408C82.4269 26.2408 82.4414 26.27 82.4414 26.3283C82.4414 26.3867 82.4269 26.4158 82.3977 26.4158C82.0963 26.4158 81.8727 26.445 81.7268 26.5033C81.581 26.552 81.4838 26.6492 81.4352 26.795C81.3865 26.9311 81.3622 27.145 81.3622 27.4367V34.1162Z" fill="#222222"/>
<path d="M96.6596 35.1808C96.7083 35.1808 96.7326 35.21 96.7326 35.2683C96.7326 35.3266 96.7083 35.3558 96.6596 35.3558C96.4652 35.3558 96.1638 35.3461 95.7554 35.3266C95.3276 35.3072 95.0214 35.2975 94.8367 35.2975C94.5936 35.2975 94.297 35.3072 93.947 35.3266C93.6165 35.3461 93.354 35.3558 93.1595 35.3558C93.1206 35.3558 93.1012 35.3266 93.1012 35.2683C93.1012 35.21 93.1206 35.1808 93.1595 35.1808C93.4123 35.1808 93.5922 35.1565 93.6991 35.1079C93.8158 35.0495 93.8741 34.9523 93.8741 34.8162C93.8741 34.6509 93.7769 34.3738 93.5824 33.9849L92.5907 32.0161H89.0031L88.4343 33.2849C88.3079 33.5668 88.2447 33.8293 88.2447 34.0724C88.2447 34.4224 88.3662 34.6947 88.6093 34.8891C88.8621 35.0836 89.1975 35.1808 89.6156 35.1808C89.6642 35.1808 89.6885 35.21 89.6885 35.2683C89.6885 35.3266 89.6642 35.3558 89.6156 35.3558C89.4406 35.3558 89.1878 35.3461 88.8572 35.3266C88.4878 35.3072 88.1669 35.2975 87.8947 35.2975C87.6322 35.2975 87.3162 35.3072 86.9467 35.3266C86.6162 35.3461 86.3488 35.3558 86.1446 35.3558C86.1057 35.3558 86.0863 35.3266 86.0863 35.2683C86.0863 35.21 86.1057 35.1808 86.1446 35.1808C86.4169 35.1808 86.6453 35.1273 86.8301 35.0204C87.0148 34.9037 87.1995 34.7044 87.3843 34.4224C87.569 34.1307 87.7877 33.7029 88.0405 33.139L91.2053 26.1825C91.2247 26.1533 91.2684 26.1387 91.3365 26.1387C91.4143 26.1387 91.458 26.1533 91.4678 26.1825L95.1137 33.3578C95.454 34.0481 95.736 34.5245 95.9596 34.787C96.1832 35.0495 96.4166 35.1808 96.6596 35.1808ZM89.1927 31.6077H92.372L90.6948 28.2826L89.1927 31.6077Z" fill="#222222"/>
<path d="M107.187 26.2408C107.206 26.2408 107.216 26.27 107.216 26.3283C107.216 26.3867 107.206 26.4158 107.187 26.4158C106.798 26.4158 106.491 26.5714 106.268 26.8825C106.044 27.1839 105.932 27.5923 105.932 28.1076V35.5746C105.932 35.6037 105.908 35.6232 105.859 35.6329C105.821 35.6426 105.791 35.6378 105.772 35.6183L98.9321 27.8305V33.5036C98.9321 34.0189 99.0391 34.4273 99.253 34.7287C99.4669 35.0301 99.7634 35.1808 100.143 35.1808C100.162 35.1808 100.172 35.21 100.172 35.2683C100.172 35.3266 100.162 35.3558 100.143 35.3558C99.8704 35.3558 99.6613 35.3509 99.5155 35.3412L98.7279 35.3266L97.8237 35.3412C97.6585 35.3509 97.4202 35.3558 97.1091 35.3558C97.08 35.3558 97.0654 35.3266 97.0654 35.2683C97.0654 35.21 97.08 35.1808 97.1091 35.1808C97.5369 35.1808 97.8724 35.0301 98.1154 34.7287C98.3682 34.4273 98.4946 34.0189 98.4946 33.5036V27.3346C98.1738 26.9846 97.8967 26.7464 97.6633 26.62C97.4397 26.4839 97.2064 26.4158 96.9633 26.4158C96.9438 26.4158 96.9341 26.3867 96.9341 26.3283C96.9341 26.27 96.9438 26.2408 96.9633 26.2408L97.5758 26.2554C97.7022 26.2651 97.8869 26.27 98.13 26.27L99.2384 26.2554C99.3745 26.2457 99.5398 26.2408 99.7342 26.2408C99.812 26.2408 99.8704 26.2603 99.9092 26.2992C99.9481 26.3381 100.016 26.4207 100.113 26.5471C100.279 26.7707 100.395 26.9214 100.463 26.9992L105.509 32.8182V28.1076C105.509 27.5826 105.403 27.1693 105.189 26.8679C104.975 26.5665 104.678 26.4158 104.299 26.4158C104.28 26.4158 104.27 26.3867 104.27 26.3283C104.27 26.27 104.28 26.2408 104.299 26.2408L104.926 26.2554C105.237 26.2749 105.5 26.2846 105.714 26.2846C105.908 26.2846 106.18 26.2749 106.53 26.2554L107.187 26.2408Z" fill="#222222"/>
<path d="M117.823 35.1808C117.872 35.1808 117.896 35.21 117.896 35.2683C117.896 35.3266 117.872 35.3558 117.823 35.3558C117.629 35.3558 117.328 35.3461 116.919 35.3266C116.491 35.3072 116.185 35.2975 116 35.2975C115.757 35.2975 115.461 35.3072 115.111 35.3266C114.78 35.3461 114.518 35.3558 114.323 35.3558C114.284 35.3558 114.265 35.3266 114.265 35.2683C114.265 35.21 114.284 35.1808 114.323 35.1808C114.576 35.1808 114.756 35.1565 114.863 35.1079C114.98 35.0495 115.038 34.9523 115.038 34.8162C115.038 34.6509 114.941 34.3738 114.746 33.9849L113.755 32.0161H110.167L109.598 33.2849C109.472 33.5668 109.409 33.8293 109.409 34.0724C109.409 34.4224 109.53 34.6947 109.773 34.8891C110.026 35.0836 110.361 35.1808 110.779 35.1808C110.828 35.1808 110.852 35.21 110.852 35.2683C110.852 35.3266 110.828 35.3558 110.779 35.3558C110.604 35.3558 110.352 35.3461 110.021 35.3266C109.652 35.3072 109.331 35.2975 109.059 35.2975C108.796 35.2975 108.48 35.3072 108.111 35.3266C107.78 35.3461 107.513 35.3558 107.308 35.3558C107.27 35.3558 107.25 35.3266 107.25 35.2683C107.25 35.21 107.27 35.1808 107.308 35.1808C107.581 35.1808 107.809 35.1273 107.994 35.0204C108.179 34.9037 108.363 34.7044 108.548 34.4224C108.733 34.1307 108.952 33.7029 109.204 33.139L112.369 26.1825C112.389 26.1533 112.432 26.1387 112.5 26.1387C112.578 26.1387 112.622 26.1533 112.632 26.1825L116.278 33.3578C116.618 34.0481 116.9 34.5245 117.123 34.787C117.347 35.0495 117.58 35.1808 117.823 35.1808ZM110.356 31.6077H113.536L111.859 28.2826L110.356 31.6077Z" fill="#222222"/>
<path d="M131.769 26.2408C131.788 26.2408 131.798 26.27 131.798 26.3283C131.798 26.3867 131.788 26.4158 131.769 26.4158C131.38 26.4158 131.073 26.5714 130.85 26.8825C130.626 27.1839 130.514 27.5923 130.514 28.1076V35.5746C130.514 35.6037 130.49 35.6232 130.441 35.6329C130.403 35.6426 130.373 35.6378 130.354 35.6183L123.514 27.8305V33.5036C123.514 34.0189 123.621 34.4273 123.835 34.7287C124.049 35.0301 124.345 35.1808 124.725 35.1808C124.744 35.1808 124.754 35.21 124.754 35.2683C124.754 35.3266 124.744 35.3558 124.725 35.3558C124.452 35.3558 124.243 35.3509 124.097 35.3412L123.31 35.3266L122.406 35.3412C122.24 35.3509 122.002 35.3558 121.691 35.3558C121.662 35.3558 121.647 35.3266 121.647 35.2683C121.647 35.21 121.662 35.1808 121.691 35.1808C122.119 35.1808 122.454 35.0301 122.697 34.7287C122.95 34.4273 123.077 34.0189 123.077 33.5036V27.3346C122.756 26.9846 122.479 26.7464 122.245 26.62C122.022 26.4839 121.788 26.4158 121.545 26.4158C121.526 26.4158 121.516 26.3867 121.516 26.3283C121.516 26.27 121.526 26.2408 121.545 26.2408L122.158 26.2554C122.284 26.2651 122.469 26.27 122.712 26.27L123.82 26.2554C123.956 26.2457 124.122 26.2408 124.316 26.2408C124.394 26.2408 124.452 26.2603 124.491 26.2992C124.53 26.3381 124.598 26.4207 124.695 26.5471C124.861 26.7707 124.977 26.9214 125.045 26.9992L130.091 32.8182V28.1076C130.091 27.5826 129.984 27.1693 129.771 26.8679C129.557 26.5665 129.26 26.4158 128.881 26.4158C128.861 26.4158 128.852 26.3867 128.852 26.3283C128.852 26.27 128.861 26.2408 128.881 26.2408L129.508 26.2554C129.819 26.2749 130.082 26.2846 130.296 26.2846C130.49 26.2846 130.762 26.2749 131.112 26.2554L131.769 26.2408Z" fill="#222222"/>
<path d="M133.48 35.5162C133.208 35.5162 132.989 35.4384 132.824 35.2829C132.668 35.1176 132.59 34.8988 132.59 34.6266C132.59 34.3738 132.668 34.1696 132.824 34.0141C132.989 33.8585 133.208 33.7807 133.48 33.7807C133.752 33.7807 133.961 33.8585 134.107 34.0141C134.263 34.1599 134.34 34.3641 134.34 34.6266C134.34 34.9086 134.263 35.1273 134.107 35.2829C133.961 35.4384 133.752 35.5162 133.48 35.5162Z" fill="#222222"/>
</svg>
