<svg width="122" height="33" viewBox="0 0 122 33" fill="none" xmlns="http://www.w3.org/2000/svg">
<path d="M65.3062 2.20926H68.2468C69.2623 2.20926 70.1085 2.56077 70.7855 3.26379C71.4695 3.95985 71.8115 4.82645 71.8115 5.86358C71.8115 6.90072 71.4695 7.76731 70.7855 8.46337C70.1085 9.1664 69.2623 9.51791 68.2468 9.51791H65.3062V2.20926ZM66.7659 8.13971H68.2468C68.8885 8.13971 69.4104 7.93089 69.8123 7.51325C70.2143 7.08169 70.4152 6.5318 70.4152 5.86358C70.4152 5.1884 70.2143 4.64199 69.8123 4.22436C69.4104 3.79976 68.8885 3.58746 68.2468 3.58746H66.7659V8.13971Z" fill="#222222"/>
<path d="M78.4849 9.51791H76.9088L75.4173 6.98076H74.3067V9.51791H72.8469V2.20926H75.8087C76.4927 2.20926 77.0745 2.44592 77.554 2.91924C78.0335 3.39256 78.2733 3.96334 78.2733 4.63155C78.2733 5.08399 78.1428 5.50511 77.8819 5.89491C77.621 6.27774 77.2755 6.56661 76.8453 6.7615L78.4849 9.51791ZM75.8087 3.55614H74.3067V5.71741H75.8087C76.0837 5.71741 76.32 5.613 76.5174 5.40418C76.7149 5.1884 76.8136 4.93086 76.8136 4.63155C76.8136 4.33225 76.7149 4.07818 76.5174 3.86937C76.32 3.66055 76.0837 3.55614 75.8087 3.55614Z" fill="#222222"/>
<path d="M81.087 8.76616C81.087 9.00978 80.9988 9.2186 80.8225 9.39262C80.6462 9.56663 80.4347 9.65364 80.1879 9.65364C79.9411 9.65364 79.7295 9.56663 79.5532 9.39262C79.3769 9.2186 79.2888 9.00978 79.2888 8.76616C79.2888 8.52254 79.3769 8.31372 79.5532 8.13971C79.7295 7.96569 79.9411 7.87868 80.1879 7.87868C80.4347 7.87868 80.6462 7.96569 80.8225 8.13971C80.9988 8.31372 81.087 8.52254 81.087 8.76616Z" fill="#222222"/>
<path d="M71.6528 19.9588H70.0662L69.6219 18.6433H66.6707L66.2265 19.9588H64.6504L67.2419 12.6502H69.0507L71.6528 19.9588ZM68.1516 14.3103L67.1361 17.2964H69.1671L68.1516 14.3103Z" fill="#222222"/>
<path d="M76.5817 15.5528V12.6502H78.0308V19.9588H76.5817V16.931H73.8315V19.9588H72.3718V12.6502H73.8315V15.5528H76.5817Z" fill="#222222"/>
<path d="M85.15 12.6502H86.6521V19.9588H85.2029V15.2187L83.1191 18.612H82.9499L80.8661 15.2291V19.9588H79.4064V12.6502H80.9084L83.0345 16.1061L85.15 12.6502Z" fill="#222222"/>
<path d="M89.4914 16.9414V18.5806H92.6119V19.9588H88.0317V12.6502H92.559V14.0284H89.4914V15.5841H92.2945V16.9414H89.4914Z" fill="#222222"/>
<path d="M93.6408 12.6502H96.5814C97.5969 12.6502 98.4431 13.0017 99.12 13.7047C99.8041 14.4008 100.146 15.2674 100.146 16.3045C100.146 17.3416 99.8041 18.2082 99.12 18.9043C98.4431 19.6073 97.5969 19.9588 96.5814 19.9588H93.6408V12.6502ZM95.1005 18.5806H96.5814C97.2231 18.5806 97.7449 18.3718 98.1469 17.9542C98.5488 17.5226 98.7498 16.9727 98.7498 16.3045C98.7498 15.6293 98.5488 15.0829 98.1469 14.6653C97.7449 14.2407 97.2231 14.0284 96.5814 14.0284H95.1005V18.5806Z" fill="#222222"/>
<path d="M107.412 19.0087C106.664 19.7396 105.755 20.105 104.683 20.105C103.611 20.105 102.701 19.7396 101.954 19.0087C101.213 18.2639 100.843 17.3625 100.843 16.3045C100.843 15.2395 101.213 14.3416 101.954 13.6108C102.701 12.8729 103.611 12.504 104.683 12.504C105.755 12.504 106.664 12.8729 107.412 13.6108C108.159 14.3416 108.533 15.2395 108.533 16.3045C108.533 17.3695 108.159 18.2709 107.412 19.0087ZM102.98 18.0273C103.431 18.4727 103.999 18.6955 104.683 18.6955C105.367 18.6955 105.934 18.4727 106.386 18.0273C106.844 17.5748 107.073 17.0006 107.073 16.3045C107.073 15.6084 106.844 15.0342 106.386 14.5818C105.927 14.1293 105.36 13.9031 104.683 13.9031C104.006 13.9031 103.438 14.1293 102.98 14.5818C102.521 15.0342 102.292 15.6084 102.292 16.3045C102.292 17.0006 102.521 17.5748 102.98 18.0273Z" fill="#222222"/>
<path d="M112.867 19.9588H111.058L108.573 12.6502H110.159L111.968 18.2674L113.766 12.6502H115.363L112.867 19.9588Z" fill="#222222"/>
<path d="M122 19.9588H120.414L119.969 18.6433H117.018L116.574 19.9588H114.998L117.589 12.6502H119.398L122 19.9588ZM118.499 14.3103L117.483 17.2964H119.514L118.499 14.3103Z" fill="#222222"/>
<path d="M71.0499 23.0911H72.5519V30.3998H71.1028V25.6596L69.019 29.0529H68.8497L66.7659 25.67V30.3998H65.3062V23.0911H66.8082L68.9344 26.5471L71.0499 23.0911Z" fill="#222222"/>
<path d="M73.9316 30.3998V23.0911H75.3913V30.3998H73.9316Z" fill="#222222"/>
<path d="M78.2217 23.0911V29.0216H81.0459V30.3998H76.7619V23.0911H78.2217Z" fill="#222222"/>
<path d="M88.4284 30.3998H86.8417L86.3975 29.0842H83.4463L83.002 30.3998H81.426L84.0175 23.0911H85.8263L88.4284 30.3998ZM84.9272 24.7512L83.9117 27.7373H85.9426L84.9272 24.7512Z" fill="#222222"/>
<path d="M93.4313 27.5494V23.0911H94.891V30.3998H93.7804L90.6071 25.931V30.3998H89.1473V23.0911H90.258L93.4313 27.5494Z" fill="#222222"/>
<path d="M102.611 30.3998H101.025L100.58 29.0842H97.6291L97.1848 30.3998H95.6087L98.2003 23.0911H100.009L102.611 30.3998ZM99.11 24.7512L98.0945 27.7373H100.125L99.11 24.7512Z" fill="#222222"/>
<path d="M110.259 27.5494V23.0911H111.718V30.3998H110.608L107.434 25.931V30.3998H105.975V23.0911H107.085L110.259 27.5494Z" fill="#222222"/>
<path d="M114.721 29.648C114.721 29.8916 114.633 30.1005 114.456 30.2745C114.28 30.4485 114.068 30.5355 113.822 30.5355C113.575 30.5355 113.363 30.4485 113.187 30.2745C113.011 30.1005 112.923 29.8916 112.923 29.648C112.923 29.4044 113.011 29.1956 113.187 29.0216C113.363 28.8475 113.575 28.7605 113.822 28.7605C114.068 28.7605 114.28 28.8475 114.456 29.0216C114.633 29.1956 114.721 29.4044 114.721 29.648Z" fill="#222222"/>
<path fill-rule="evenodd" clip-rule="evenodd" d="M32.2915 0.619407C33.5867 0.0015822 35.0374 -0.164482 36.6031 0.168303C38.1688 0.501112 39.4266 1.2429 40.3586 2.33416C41.2741 3.40616 41.8048 4.73174 42.0829 6.13967C42.6318 8.91786 42.2545 12.3181 41.5283 15.6549C41.113 17.5636 40.5682 19.5125 39.975 21.3936C41.7868 19.053 43.7134 16.8023 45.6632 14.9028C48.0191 12.6077 50.5334 10.6998 53.028 9.84272C54.295 9.40744 55.6084 9.22534 56.9113 9.44703C58.2289 9.67123 59.4396 10.2926 60.5044 11.3111L58.4238 13.4865C57.7578 12.8494 57.0845 12.5301 56.4063 12.4147C55.7133 12.2968 54.9185 12.3762 54.0061 12.6897C52.1419 13.3302 50.012 14.8691 47.764 17.0591C43.4546 21.2573 39.1674 27.39 36.0635 32.2853C35.0983 31.9212 34.1091 31.6058 33.0989 31.3424C34.3471 28.1414 37.2114 21.3349 38.5868 15.0148C39.2881 11.7926 39.5566 8.88349 39.1298 6.72321C38.9201 5.66188 38.5576 4.86073 38.0694 4.28909C37.5977 3.73673 36.9412 3.31779 35.9772 3.1129C35.0133 2.90803 34.2431 3.02374 33.5875 3.33647C32.909 3.66012 32.2521 4.24447 31.6289 5.12869C30.3603 6.92863 29.4225 9.69559 28.7525 12.9245C27.4192 19.3501 27.2826 26.8566 27.118 30.2205L27.108 30.4232C26.6079 30.3981 26.1045 30.3854 25.5981 30.3854C25.0516 30.3854 24.5086 30.4003 23.9694 30.4295C21.0913 26.3802 17.0799 20.9057 12.9925 16.9416C14.4741 22.6859 16.9088 28.4894 18.0277 31.3606C17.049 31.6183 16.0902 31.9251 15.1538 32.2776C13.9144 29.118 11.0054 22.1525 9.59137 15.6549C9.4572 15.0384 9.33503 14.4197 9.22831 13.8031C8.23712 13.1313 7.29187 12.6318 6.40909 12.3359C5.51059 12.0347 4.73589 11.9642 4.06729 12.0859C3.41491 12.2047 2.76752 12.5231 2.12852 13.1621L0 11.0336C1.03546 9.99815 2.22495 9.36152 3.52814 9.12424C4.81505 8.88996 6.11476 9.0623 7.36598 9.48172C7.84309 9.64165 8.32129 9.84041 8.79925 10.0728C8.73414 8.68133 8.79727 7.35132 9.03664 6.13967C9.31479 4.73175 9.84558 3.40616 10.7611 2.33416C11.6931 1.24292 12.9508 0.501109 14.5165 0.168303C16.0822 -0.164501 17.533 0.001572 18.8282 0.619407C20.1006 1.22636 21.1246 2.22148 21.9514 3.39453C23.5828 5.7093 24.621 8.96919 25.3148 12.3128C25.4012 12.7294 25.4827 13.1502 25.5598 13.5738C25.6369 13.1502 25.7184 12.7294 25.8048 12.3128C26.4986 8.96918 27.5369 5.7093 29.1683 3.39453C29.9951 2.22147 31.0191 1.22635 32.2915 0.619407ZM17.5322 3.33647C16.8766 3.02372 16.1063 2.90801 15.1423 3.1129C14.1784 3.3178 13.5219 3.73673 13.0501 4.28909C12.5619 4.86073 12.1994 5.66189 11.9898 6.72321C11.6964 8.2085 11.7316 10.0478 12.0102 12.0994C12.9055 12.7833 13.7882 13.5484 14.6483 14.3598C17.9176 17.4442 21.1205 21.4523 23.7665 25.0174C23.5698 21.423 23.2047 16.9605 22.3672 12.9245C21.6973 9.69563 20.7593 6.92879 19.4908 5.12883C18.8676 4.24459 18.2107 3.66013 17.5322 3.33647Z" fill="#9F8D8D"/>
</svg>
