<svg width="53" height="37" viewBox="0 0 53 37" fill="none" xmlns="http://www.w3.org/2000/svg">
<path d="M40.9877 8.98677C40.4994 9.23094 40.0399 9.5133 39.6081 9.82358C36.7335 11.9369 35.0221 15.0338 33.9986 18.2167C33.65 19.3197 33.398 20.4624 33.1898 21.6378C32.4075 26.1424 32.1223 31.5143 29.2287 35.6927C28.9169 36.1502 28.5837 36.5835 28.2253 37C28.4336 36.4918 28.6156 35.986 28.7781 35.4733C30.2714 30.8541 29.7366 26.1774 30.5907 21.1784C30.817 19.9011 31.1494 18.6132 31.6487 17.3705C33.0633 13.8261 35.81 10.6274 39.3792 9.37816C39.907 9.19628 40.447 9.06315 40.9877 8.98677Z" fill="#9F8D8D"/>
<path d="M11.1463 8.98677C11.6871 9.06315 12.227 9.19627 12.7549 9.37816C16.3241 10.6274 19.0708 13.8261 20.4854 17.3705C20.9847 18.6132 21.3169 19.9011 21.5431 21.1784C22.3973 26.1775 21.8627 30.8541 23.356 35.4733C23.5185 35.9859 23.7004 36.4918 23.9087 37C23.5503 36.5835 23.2171 36.1502 22.9054 35.6927C20.0117 31.5143 19.7266 26.1425 18.9443 21.6378C18.736 20.4624 18.484 19.3197 18.1355 18.2167C17.1119 15.0338 15.4004 11.9369 12.5257 9.82358C12.0939 9.51331 11.6347 9.23093 11.1463 8.98677Z" fill="#9F8D8D"/>
<path d="M42.4628 0.703085C44.6039 0.0155137 47.0123 -0.351849 49.2964 0.475227C51.6233 1.1423 53.2385 4.19886 51.9214 6.30129C51.594 6.925 51.0181 7.34773 50.4068 7.55334C49.1485 8.02838 47.5882 7.36792 47.241 6.14993C47.7832 7.30344 49.2335 7.61299 50.2184 7.08943C50.7022 6.85392 51.0937 6.45674 51.262 5.9988C52.0557 4.11036 50.679 2.22692 48.8505 1.83255C47.0197 1.35898 44.9902 1.80286 43.1398 2.55473C37.1053 4.78008 33.1006 10.2783 26.1374 10.2783C19.0643 10.2783 14.5447 4.50565 9.25461 2.55473C7.40414 1.80285 5.3744 1.35897 3.54366 1.83255C1.7152 2.22695 0.338675 4.11039 1.13233 5.9988C1.30063 6.45672 1.69217 6.85392 2.17596 7.08943C3.16085 7.61291 4.6112 7.30339 5.1534 6.14993C4.80613 7.3679 3.24584 8.02833 1.98758 7.55334C1.37626 7.34773 0.800168 6.92504 0.472733 6.30129C-0.844404 4.19883 0.771033 1.14225 3.09799 0.475227C5.38204 -0.351812 7.79023 0.0155377 9.93131 0.703085C16.2149 2.70922 20.253 7.64738 26.1969 7.64738C32.1409 7.64738 36.1791 2.70926 42.4628 0.703085Z" fill="#9F8D8D"/>
</svg>
