<svg xmlns="http://www.w3.org/2000/svg" version="1.1" xmlns:xlink="http://www.w3.org/1999/xlink" width="61" height="33"><svg xmlns="http://www.w3.org/2000/svg" version="1.1" xmlns:xlink="http://www.w3.org/1999/xlink" width="61" height="33"><svg width="61" height="33" viewBox="0 0 61 33" fill="none" xmlns="http://www.w3.org/2000/svg">
<path fill-rule="evenodd" clip-rule="evenodd" d="M32.2915 0.619407C33.5867 0.0015822 35.0374 -0.164482 36.6031 0.168303C38.1688 0.501112 39.4266 1.2429 40.3586 2.33416C41.2741 3.40616 41.8048 4.73174 42.0829 6.13967C42.6318 8.91786 42.2545 12.3181 41.5283 15.6549C41.113 17.5636 40.5682 19.5125 39.975 21.3936C41.7868 19.053 43.7134 16.8023 45.6632 14.9028C48.0191 12.6077 50.5334 10.6998 53.028 9.84272C54.295 9.40744 55.6084 9.22534 56.9113 9.44703C58.2289 9.67123 59.4396 10.2926 60.5044 11.3111L58.4238 13.4865C57.7578 12.8494 57.0845 12.5301 56.4063 12.4147C55.7133 12.2968 54.9185 12.3762 54.0061 12.6897C52.1419 13.3302 50.012 14.8691 47.764 17.0591C43.4546 21.2573 39.1674 27.39 36.0635 32.2853C35.0983 31.9212 34.1091 31.6058 33.0989 31.3424C34.3471 28.1414 37.2114 21.3349 38.5868 15.0148C39.2881 11.7926 39.5566 8.88349 39.1298 6.72321C38.9201 5.66188 38.5576 4.86073 38.0694 4.28909C37.5977 3.73673 36.9412 3.31779 35.9772 3.1129C35.0133 2.90803 34.2431 3.02374 33.5875 3.33647C32.909 3.66012 32.2521 4.24447 31.6289 5.12869C30.3603 6.92863 29.4225 9.69559 28.7525 12.9245C27.4192 19.3501 27.2826 26.8566 27.118 30.2205L27.108 30.4232C26.6079 30.3981 26.1045 30.3854 25.5981 30.3854C25.0516 30.3854 24.5086 30.4003 23.9694 30.4295C21.0913 26.3802 17.0799 20.9057 12.9925 16.9416C14.4741 22.6859 16.9088 28.4894 18.0277 31.3606C17.049 31.6183 16.0902 31.9251 15.1538 32.2776C13.9144 29.118 11.0054 22.1525 9.59137 15.6549C9.4572 15.0384 9.33503 14.4197 9.22831 13.8031C8.23712 13.1313 7.29187 12.6318 6.40909 12.3359C5.51059 12.0347 4.73589 11.9642 4.06729 12.0859C3.41491 12.2047 2.76752 12.5231 2.12852 13.1621L0 11.0336C1.03546 9.99815 2.22495 9.36152 3.52814 9.12424C4.81505 8.88996 6.11476 9.0623 7.36598 9.48172C7.84309 9.64165 8.32129 9.84041 8.79925 10.0728C8.73414 8.68133 8.79727 7.35132 9.03664 6.13967C9.31479 4.73175 9.84558 3.40616 10.7611 2.33416C11.6931 1.24292 12.9508 0.501109 14.5165 0.168303C16.0822 -0.164501 17.533 0.001572 18.8282 0.619407C20.1006 1.22636 21.1246 2.22148 21.9514 3.39453C23.5828 5.7093 24.621 8.96919 25.3148 12.3128C25.4012 12.7294 25.4827 13.1502 25.5598 13.5738C25.6369 13.1502 25.7184 12.7294 25.8048 12.3128C26.4986 8.96918 27.5369 5.7093 29.1683 3.39453C29.9951 2.22147 31.0191 1.22635 32.2915 0.619407ZM17.5322 3.33647C16.8766 3.02372 16.1063 2.90801 15.1423 3.1129C14.1784 3.3178 13.5219 3.73673 13.0501 4.28909C12.5619 4.86073 12.1994 5.66189 11.9898 6.72321C11.6964 8.2085 11.7316 10.0478 12.0102 12.0994C12.9055 12.7833 13.7882 13.5484 14.6483 14.3598C17.9176 17.4442 21.1205 21.4523 23.7665 25.0174C23.5698 21.423 23.2047 16.9605 22.3672 12.9245C21.6973 9.69563 20.7593 6.92879 19.4908 5.12883C18.8676 4.24459 18.2107 3.66013 17.5322 3.33647Z" fill="#9F8D8D"></path>
</svg></svg><style>@media (prefers-color-scheme: light) { :root { filter: none; } }
@media (prefers-color-scheme: dark) { :root { filter: none; } }
</style></svg>